<?xml version="1.0" encoding="UTF-8"?>
<svg id="Layer_4_copy" data-name="Layer 4 copy" xmlns="http://www.w3.org/2000/svg" xmlns:xlink="http://www.w3.org/1999/xlink" viewBox="0 0 1920 1080">
  <defs>
    <style>
      .cls-1 {
        fill: #869b5a;
      }

      .cls-1, .cls-2, .cls-3, .cls-4, .cls-5, .cls-6, .cls-7, .cls-8, .cls-9, .cls-10, .cls-11, .cls-12, .cls-13 {
        stroke-miterlimit: 10;
      }

      .cls-1, .cls-2, .cls-3, .cls-4, .cls-5, .cls-6, .cls-7, .cls-9, .cls-10, .cls-11, .cls-12, .cls-13 {
        stroke-width: 6px;
      }

      .cls-1, .cls-8 {
        stroke: #4a5d23;
      }

      .cls-2 {
        stroke: #376577;
      }

      .cls-2, .cls-14 {
        fill: #47778e;
      }

      .cls-3 {
        fill: #aec4b3;
        stroke: #a3b18a;
      }

      .cls-4, .cls-15, .cls-8 {
        fill: none;
      }

      .cls-4, .cls-9, .cls-12, .cls-13 {
        stroke-linecap: round;
      }

      .cls-4, .cls-9, .cls-13 {
        stroke: #212121;
      }

      .cls-16, .cls-6 {
        fill: #6695b2;
      }

      .cls-17 {
        fill: #cfdce5;
      }

      .cls-5 {
        stroke: #6695b2;
      }

      .cls-5, .cls-18 {
        fill: #81aac9;
      }

      .cls-6 {
        stroke: #47778e;
      }

      .cls-19 {
        fill: #dfe7ed;
      }

      .cls-7 {
        fill: #f9f6f0;
        stroke: #888e91;
      }

      .cls-20 {
        fill: #b7cfe2;
      }

      .cls-8 {
        stroke-width: 5px;
      }

      .cls-9 {
        fill: #494743;
      }

      .cls-10 {
        fill: #a3b18a;
        stroke: #869b5a;
      }

      .cls-11 {
        fill: #ba8238;
        stroke: #5b4423;
      }

      .cls-12 {
        stroke: #755723;
      }

      .cls-12, .cls-13 {
        fill: #ffe49b;
      }

      .cls-21 {
        clip-path: url(#clippath);
      }

      .cls-22 {
        fill: #bfd4e0;
      }
    </style>
    <clipPath id="clippath">
      <path class="cls-15" d="M.74,103.75h1920v456.41s-116.85,218.43-405.36,219.23c-529.49,1.46-383.59-499.33-1030.39-499.33-294.14,0-484.25,207.02-484.25,207.02V103.75Z"/>
    </clipPath>
  </defs>
  <rect class="cls-20" x=".74" y="-2.84" width="1920.65" height="1082.77"/>
  <g>
    <polygon class="cls-22" points="-77.02 722.44 1991.93 628.93 1991.93 884.04 -77.02 894.03 -77.02 722.44"/>
    <polygon class="cls-17" points="-69 739.69 1967.87 803.98 1967.87 1047.65 -56.97 988.58 -69 739.69"/>
    <polygon class="cls-19" points="-25.69 1047.65 2006.78 1074.99 2006.78 850.04 -56.97 920.9 -25.69 1047.65"/>
  </g>
  <g class="cls-21">
    <polygon class="cls-17" points="1988.86 271.38 -113.9 234 -27.84 562.59 1973.41 448.88 1988.86 271.38"/>
    <polygon class="cls-19" points="2015.15 382.2 -92.35 302.09 -113.64 590.62 1973.41 448.88 2015.15 382.2"/>
    <path class="cls-3" d="M917.08,348.89c343.63,76.21,555.56,66.45,685.34,21.43,154.85-53.71,216.31-142.83,369.53-145.2s-49.95,443.52-49.95,443.52l-503.46,189.8-501.46-509.55Z"/>
    <path class="cls-3" d="M-79.32,280.06c80.05-5.92,150.22,72.76,208.06,81.17,57.84,8.41-19.3,169.15-19.3,169.15l-180.18,21.94-8.58-272.26Z"/>
    <path class="cls-10" d="M80.79,346.76c405.58-217.72,900.99-49.36,1100.77,52.34,199.79,101.7,459.51,108.69,543.42,95.7,83.91-12.99,107.88,153.84,107.88,153.84l-559.4,165.82-929.92-241.41s-668.34-8.57-262.76-226.29Z"/>
    <path class="cls-1" d="M1013.05,570.44c132.86,56.61,373.28,40.36,493.47,0,202.78-68.09,171.48-172.1,377.6-196.12,316.66-36.9,75.92,378.6,35.96,399.07-39.96,20.48-373.6,147.34-517.45,114.38-143.85-32.96-389.58-317.33-389.58-317.33Z"/>
  </g>
  <g>
    <rect class="cls-18" x="143.76" y="906.9" width="101.91" height="220.93"/>
    <rect class="cls-5" x="227.41" y="823.25" width="87.94" height="283.14" rx="6.74" ry="6.74"/>
    <path class="cls-5" d="M154.48,751.93v-54.61c0-3.72-3.02-6.74-6.74-6.74h-55.16c-3.72,0-6.74,3.02-6.74,6.74v54.61c0,3.72-3.02,6.74-6.74,6.74h-7.97c-3.72,0-6.74,3.02-6.74,6.74v381.43c0,3.72,3.02,6.74,6.74,6.74h91.63c3.72,0,6.74-3.02,6.74-6.74v-381.43c0-3.72-3.02-6.74-6.74-6.74h-1.54c-3.72,0-6.74-3.02-6.74-6.74Z"/>
    <rect class="cls-5" x="392.17" y="918.87" width="77.62" height="198.24" rx="6.74" ry="6.74"/>
    <rect class="cls-5" x="555.59" y="804.72" width="96.52" height="312.39" rx="6.74" ry="6.74"/>
    <rect class="cls-5" x="630.25" y="918.87" width="341.47" height="164.26" rx="6.74" ry="6.74"/>
    <rect class="cls-5" x="840.87" y="850.78" width="51.48" height="232.35" rx="6.74" ry="6.74"/>
    <path class="cls-5" d="M1132.79,758.67h53.22c7.21,0,13.07,5.86,13.07,13.07v311.39h-79.36v-311.39c0-7.21,5.86-13.07,13.07-13.07Z"/>
    <path class="cls-5" d="M1063.95,844.04v-48.51c0-3.72-3.02-6.74-6.74-6.74h-25.13c-3.72,0-6.74,3.02-6.74,6.74v48.51c0,3.72-3.02,6.74-6.74,6.74h-3.68c-3.72,0-6.74,3.02-6.74,6.74v218.87c0,3.72,3.02,6.74,6.74,6.74h74.47c3.72,0,6.74-3.02,6.74-6.74v-218.87c0-3.72-3.02-6.74-6.74-6.74h-18.7c-3.72,0-6.74-3.02-6.74-6.74Z"/>
    <rect class="cls-5" x="1181.92" y="836.12" width="92.23" height="247.01" rx="6.74" ry="6.74"/>
    <rect class="cls-5" x="1334.21" y="894.03" width="63.03" height="189.09" rx="6.74" ry="6.74"/>
    <rect class="cls-5" x="1374.97" y="959.63" width="73.77" height="123.5" rx="6.74" ry="6.74"/>
    <rect class="cls-5" x="1456.48" y="823.25" width="96.52" height="259.88" rx="6.74" ry="6.74"/>
    <rect class="cls-18" x="1574.9" y="941.22" width="51.03" height="141.91"/>
    <rect class="cls-18" x="1670.97" y="884.04" width="107.27" height="199.09"/>
    <rect class="cls-5" x="1851.15" y="804.72" width="69.59" height="278.41" rx="6.74" ry="6.74"/>
    <rect class="cls-6" x="-25.69" y="823.25" width="122.26" height="293.86" rx="11.23" ry="11.23"/>
    <rect class="cls-16" x="186.66" y="804.72" width="64.08" height="288.79"/>
    <rect class="cls-6" x="331.7" y="779.39" width="78.03" height="314.13" rx="11.23" ry="11.23"/>
    <rect class="cls-6" x="512.69" y="872.81" width="91.16" height="210.32" rx="11.23" ry="11.23"/>
    <rect class="cls-6" x="692.87" y="739.69" width="108.11" height="343.44" rx="11.23" ry="11.23"/>
    <rect class="cls-6" x="905.22" y="872.81" width="146.93" height="210.32" rx="11.23" ry="11.23"/>
    <rect class="cls-6" x="1159.4" y="722.44" width="68.64" height="360.69" rx="11.23" ry="11.23"/>
    <rect class="cls-6" x="1293.46" y="920.9" width="72.27" height="162.23" rx="11.23" ry="11.23"/>
    <rect class="cls-16" x="1504.74" y="966.95" width="95.68" height="116.18"/>
    <rect class="cls-6" x="1746.05" y="758.67" width="66.49" height="324.46" rx="11.23" ry="11.23"/>
    <rect class="cls-14" x="35.44" y="872.81" width="97.6" height="210.32"/>
    <rect class="cls-14" x="218.7" y="920.9" width="70.92" height="162.23"/>
    <rect class="cls-14" x="371.85" y="970.18" width="59.14" height="112.95"/>
    <rect class="cls-2" x="641.39" y="850.78" width="64.35" height="232.35" rx="11.65" ry="11.65"/>
    <rect class="cls-2" x="875.19" y="977.97" width="57.91" height="105.16" rx="11.65" ry="11.65"/>
    <rect class="cls-2" x="1008.18" y="920.9" width="72.93" height="162.23" rx="11.65" ry="11.65"/>
    <rect class="cls-2" x="746.93" y="1001" width="158.29" height="82.13" rx="11.65" ry="11.65"/>
    <rect class="cls-2" x="1181.92" y="966.95" width="147.67" height="116.18" rx="11.65" ry="11.65"/>
    <rect class="cls-2" x="1132.59" y="902.78" width="81.51" height="180.35" rx="11.65" ry="11.65"/>
    <rect class="cls-2" x="1397.24" y="1012.18" width="95.7" height="70.95" rx="11.65" ry="11.65"/>
    <rect class="cls-2" x="1625.93" y="823.25" width="77.22" height="259.88"/>
    <rect class="cls-14" x="1779.29" y="953.19" width="93.31" height="129.94"/>
  </g>
  <g>
    <path class="cls-11" d="M2006.78,1074.99c-13.62-1.96-21.31-17.13-15.01-29.62h0c51.03-101.15-67.47-203.56-156.08-134.89h0c-10.94,8.48-26.83,3.28-31.01-10.16h0c-33.88-108.78-188.01-95.66-203,17.29h0c-1.85,13.95-16.63,21.76-28.85,15.26h0c-98.94-52.7-198.42,68.28-131.02,159.34h0c8.32,11.25,3.31,27.5-9.79,31.73h0c-106.04,34.26-92.59,192.22,17.72,208.05h0c13.62,1.96,21.31,17.13,15.01,29.62l542.03-286.62Z"/>
    <path class="cls-11" d="M347.42,1347.69c-3.98-13.18,6.53-26.55,20.52-26.11h0c113.23,3.57,156.06-147.09,56.41-198.43h0c-12.31-6.34-14.3-22.94-3.88-32.4h0c84.32-76.63,7.36-210.82-101.36-176.74h0c-13.43,4.21-26.75-5.89-26.01-19.71h0c6.02-111.94-145.65-151.06-199.75-51.52h0c-6.68,12.29-23.53,14.61-32.9,4.52h0c-75.81-81.68-213.34-2.81-181.13,103.88h0c3.98,13.18-6.53,26.55-20.52,26.11l488.62,370.4Z"/>
    <path class="cls-11" d="M1823.4,1095.83c-2.82-2.1-2.71-6.36.21-8.32h0c23.67-15.82,9.47-52.76-18.7-48.65h0c-3.48.51-6.41-2.58-5.73-6.03h0c5.55-27.93-30.61-44.01-47.63-21.18h0c-2.1,2.82-6.36,2.71-8.32-.21h0c-15.82-23.67-52.76-9.47-48.65,18.7h0c.51,3.48-2.58,6.41-6.03,5.73h0c-27.93-5.55-44.01,30.61-21.18,47.63h0c2.82,2.1,2.71,6.36-.21,8.32l156.23,4.01Z"/>
    <path class="cls-11" d="M1326.28,1095.83c-2.82-2.1-2.71-6.36.21-8.32h0c23.67-15.82,9.47-52.76-18.7-48.65h0c-3.48.51-6.41-2.58-5.73-6.03h0c5.55-27.93-30.61-44.01-47.63-21.18h0c-2.1,2.82-6.36,2.71-8.32-.21h0c-15.82-23.67-52.76-9.47-48.65,18.7h0c.51,3.48-2.58,6.41-6.03,5.73h0c-27.93-5.55-44.01,30.61-21.18,47.63h0c2.82,2.1,2.71,6.36-.21,8.32l156.23,4.01Z"/>
    <path class="cls-11" d="M590.04,1090.24c-2.82-2.1-2.71-6.36.21-8.32h0c23.67-15.82,9.47-52.76-18.7-48.65h0c-3.48.51-6.41-2.58-5.73-6.03h0c5.55-27.93-30.61-44.01-47.63-21.18h0c-2.1,2.82-6.36,2.71-8.32-.21h0c-15.82-23.67-52.76-9.47-48.65,18.7h0c.51,3.48-2.58,6.41-6.03,5.73h0c-27.93-5.55-44.01,30.61-21.18,47.63h0c2.82,2.1,2.71,6.36-.21,8.32l156.23,4.01Z"/>
    <path class="cls-11" d="M777.08,1117.52c-3.77-2.81-3.63-8.51.29-11.13h0c31.68-21.17,12.68-70.6-25.03-65.1h0c-4.66.68-8.58-3.45-7.67-8.07h0c7.43-37.37-40.96-58.89-63.73-28.34h0c-2.81,3.77-8.51,3.63-11.13-.29h0c-21.17-31.68-70.6-12.68-65.1,25.03h0c.68,4.66-3.45,8.58-8.07,7.67h0c-37.37-7.43-58.89,40.96-28.34,63.73h0c3.77,2.81,3.63,8.51-.29,11.13l209.07,5.37Z"/>
    <path class="cls-11" d="M257.99,1117.52c-3.77-2.81-3.63-8.51.29-11.13h0c31.68-21.17,12.68-70.6-25.03-65.1h0c-4.66.68-8.58-3.45-7.67-8.07h0c7.43-37.37-40.96-58.89-63.73-28.34h0c-2.81,3.77-8.51,3.63-11.13-.29h0c-21.17-31.68-70.6-12.68-65.1,25.03h0c.68,4.66-3.45,8.58-8.07,7.67h0c-37.37-7.43-58.89,40.96-28.34,63.73h0c3.77,2.81,3.63,8.51-.29,11.13l209.07,5.37Z"/>
    <path class="cls-11" d="M1627.07,1160.49c-3.77-2.81-3.63-8.51.29-11.13h0c31.68-21.17,12.68-70.6-25.03-65.1h0c-4.66.68-8.58-3.45-7.67-8.07h0c7.43-37.37-40.96-58.89-63.73-28.34h0c-2.81,3.77-8.51,3.63-11.13-.29h0c-21.17-31.68-70.6-12.68-65.1,25.03h0c.68,4.66-3.45,8.58-8.07,7.67h0c-37.37-7.43-58.89,40.96-28.34,63.73h0c3.77,2.81,3.63,8.51-.29,11.13l209.07,5.37Z"/>
    <path class="cls-11" d="M2044.91,1117.52c-3.77-2.81-3.63-8.51.29-11.13h0c31.68-21.17,12.68-70.6-25.03-65.1h0c-4.66.68-8.58-3.45-7.67-8.07h0c7.43-37.37-40.96-58.89-63.73-28.34h0c-2.81,3.77-8.51,3.63-11.13-.29h0c-21.17-31.68-70.6-12.68-65.1,25.03h0c.68,4.66-3.45,8.58-8.07,7.67h0c-37.37-7.43-58.89,40.96-28.34,63.73h0c3.77,2.81,3.63,8.51-.29,11.13l209.07,5.37Z"/>
    <path class="cls-11" d="M1189.56,1201.4c-2.64-3.89-.64-9.23,3.92-10.42h0c36.87-9.62,35.12-62.55-2.3-69.71h0c-4.62-.88-6.98-6.08-4.6-10.14h0c19.27-32.87-19.39-69.06-50.92-47.67h0c-3.89,2.64-9.23.64-10.42-3.92h0c-9.62-36.87-62.55-35.12-69.71,2.3h0c-.88,4.62-6.08,6.98-10.14,4.6h0c-32.87-19.27-69.06,19.39-47.67,50.92h0c2.64,3.89.64,9.23-3.92,10.42l195.75,73.61Z"/>
    <path class="cls-11" d="M433.82,1096.02c-1.44-1.07-1.39-3.25.11-4.25h0c12.1-8.09,4.84-26.96-9.56-24.86h0c-1.78.26-3.28-1.32-2.93-3.08h0c2.84-14.27-15.64-22.49-24.34-10.82h0c-1.07,1.44-3.25,1.39-4.25-.11h0c-8.09-12.1-26.96-4.84-24.86,9.56h0c.26,1.78-1.32,3.28-3.08,2.93h0c-14.27-2.84-22.49,15.64-10.82,24.34h0c1.44,1.07,1.39,3.25-.11,4.25l79.84,2.05Z"/>
    <path class="cls-11" d="M1414.5,1091.3c-1.44-1.07-1.39-3.25.11-4.25h0c12.1-8.09,4.84-26.96-9.56-24.86h0c-1.78.26-3.28-1.32-2.93-3.08h0c2.84-14.27-15.64-22.49-24.34-10.82h0c-1.07,1.44-3.25,1.39-4.25-.11h0c-8.09-12.1-26.96-4.84-24.86,9.56h0c.26,1.78-1.32,3.28-3.08,2.93h0c-14.27-2.84-22.49,15.64-10.82,24.34h0c1.44,1.07,1.39,3.25-.11,4.25l79.84,2.05Z"/>
    <path class="cls-11" d="M1673.16,1091.3c-1.44-1.07-1.39-3.25.11-4.25h0c12.1-8.09,4.84-26.96-9.56-24.86h0c-1.78.26-3.28-1.32-2.93-3.08h0c2.84-14.27-15.64-22.49-24.34-10.82h0c-1.07,1.44-3.25,1.39-4.25-.11h0c-8.09-12.1-26.96-4.84-24.86,9.56h0c.26,1.78-1.32,3.28-3.08,2.93h0c-14.27-2.84-22.49,15.64-10.82,24.34h0c1.44,1.07,1.39,3.25-.11,4.25l79.84,2.05Z"/>
    <path class="cls-11" d="M1000.27,1096.02c-1.44-1.07-1.39-3.25.11-4.25h0c12.1-8.09,4.84-26.96-9.56-24.86h0c-1.78.26-3.28-1.32-2.93-3.08h0c2.84-14.27-15.64-22.49-24.34-10.82h0c-1.07,1.44-3.25,1.39-4.25-.11h0c-8.09-12.1-26.96-4.84-24.86,9.56h0c.26,1.78-1.32,3.28-3.08,2.93h0c-14.27-2.84-22.49,15.64-10.82,24.34h0c1.44,1.07,1.39,3.25-.11,4.25l79.84,2.05Z"/>
    <path class="cls-11" d="M943.68,1091.3c-1.44-1.07-1.39-3.25.11-4.25h0c12.1-8.09,4.84-26.96-9.56-24.86h0c-1.78.26-3.28-1.32-2.93-3.08h0c2.84-14.27-15.64-22.49-24.34-10.82h0c-1.07,1.44-3.25,1.39-4.25-.11h0c-8.09-12.1-26.96-4.84-24.86,9.56h0c.26,1.78-1.32,3.28-3.08,2.93h0c-14.27-2.84-22.49,15.64-10.82,24.34h0c1.44,1.07,1.39,3.25-.11,4.25l79.84,2.05Z"/>
    <path class="cls-11" d="M74.97,1091.3c-1.44-1.07-1.39-3.25.11-4.25h0c12.1-8.09,4.84-26.96-9.56-24.86h0c-1.78.26-3.28-1.32-2.93-3.08h0c2.84-14.27-15.64-22.49-24.34-10.82h0c-1.07,1.44-3.25,1.39-4.25-.11h0c-8.09-12.1-26.96-4.84-24.86,9.56h0c.26,1.78-1.32,3.28-3.08,2.93h0c-14.27-2.84-22.49,15.64-10.82,24.34h0c1.44,1.07,1.39,3.25-.11,4.25l79.84,2.05Z"/>
  </g>
  <g>
    <rect class="cls-12" x="1594.1" y="373.44" width="164.95" height="76.62" rx="6.38" ry="6.38"/>
    <rect class="cls-12" x="1594.1" y="450.06" width="164.95" height="76.62" rx="6.38" ry="6.38"/>
    <rect class="cls-12" x="1594.1" y="526.68" width="164.95" height="76.62" rx="6.38" ry="6.38"/>
    <rect class="cls-12" x="1581.39" y="355.07" width="190.37" height="29.86" rx="6.38" ry="6.38"/>
    <rect class="cls-12" x="1645.59" y="411.75" width="61.96" height="12.75" rx="6.38" ry="6.38"/>
    <rect class="cls-12" x="1645.59" y="481.99" width="61.96" height="12.75" rx="6.38" ry="6.38"/>
    <rect class="cls-12" x="1645.59" y="558.61" width="61.96" height="12.75" rx="6.38" ry="6.38"/>
  </g>
  <g>
    <rect class="cls-12" x="1390.76" y="446.16" width="164.95" height="76.62" rx="6.38" ry="6.38"/>
    <rect class="cls-12" x="1390.76" y="522.78" width="164.95" height="76.62" rx="6.38" ry="6.38"/>
    <rect class="cls-12" x="1390.76" y="599.4" width="164.95" height="76.62" rx="6.38" ry="6.38"/>
    <rect class="cls-12" x="1378.05" y="427.79" width="190.37" height="29.86" rx="6.38" ry="6.38"/>
    <rect class="cls-12" x="1442.25" y="484.47" width="61.96" height="12.75" rx="6.38" ry="6.38"/>
    <rect class="cls-12" x="1442.25" y="554.71" width="61.96" height="12.75" rx="6.38" ry="6.38"/>
    <rect class="cls-12" x="1442.25" y="631.33" width="61.96" height="12.75" rx="6.38" ry="6.38"/>
  </g>
  <path class="cls-8" d="M1920.74,560.16s-116.85,218.43-405.36,219.23c-529.49,1.46-382.31-500.07-1030.39-499.33C190.85,280.4.74,487.08.74,487.08"/>
  <g>
    <path class="cls-9" d="M1219.58,401.72l3.98-10.06,9.59,10.59-10.27,3.07c-2.17.65-4.13-1.49-3.3-3.6Z"/>
    <path class="cls-13" d="M1280.44,387.67c-15.13,13.7-38.85,23.89-52.07,9.28-14.33-15.83-.4-36.85,14.73-50.54,15.13-13.7,35.76-15.56,46.07-4.17,10.31,11.39,6.41,31.73-8.73,45.43Z"/>
    <path class="cls-4" d="M1244.52,369.19c1.54,7.32,5.78,12.12,12.88,14.23"/>
    <path class="cls-4" d="M1232.04,370.32c1.93,12.58,10.14,21.65,24.64,27.22"/>
    <circle class="cls-9" cx="1292.82" cy="338.44" r="24.81"/>
    <path class="cls-7" d="M1263.87,363.02c-19.85,12.7-51.33,5.28-53.78-14.19-2.3-18.22,17.25-26.89,34.41-24.71,25.51,3.24,32.96,22.04,33.08,25.34.13,3.55-5.85,8.53-13.71,13.56Z"/>
    <path class="cls-7" d="M1265.47,364.79c-14.61,18.49-10.36,50.55,8.77,54.93,17.9,4.09,28.47-14.49,28-31.78-.69-25.7-18.66-34.99-21.92-35.44-3.52-.48-9.07,4.97-14.86,12.29Z"/>
    <path class="cls-4" d="M1318.09,331.67c10.53-6.73,17.29-4.36,20.31-1.02"/>
    <path class="cls-4" d="M1303.63,315.69c7.75-9.81,6.06-16.77,3.04-20.11"/>
  </g>
  <g>
    <path class="cls-9" d="M970.42,802.46l3.98-10.06,9.59,10.59-10.27,3.07c-2.17.65-4.13-1.49-3.3-3.6Z"/>
    <path class="cls-13" d="M1031.27,788.4c-15.13,13.7-38.85,23.89-52.07,9.28-14.33-15.83-.4-36.85,14.73-50.54,15.13-13.7,35.76-15.56,46.07-4.17,10.31,11.39,6.41,31.73-8.73,45.43Z"/>
    <path class="cls-4" d="M995.35,769.92c1.54,7.32,5.78,12.12,12.88,14.23"/>
    <path class="cls-4" d="M982.88,771.06c1.93,12.58,10.14,21.65,24.64,27.22"/>
    <circle class="cls-9" cx="1043.65" cy="739.17" r="24.81"/>
    <path class="cls-7" d="M1014.7,763.76c-19.85,12.7-51.33,5.28-53.78-14.19-2.3-18.22,17.25-26.89,34.41-24.71,25.51,3.24,32.96,22.04,33.08,25.34.13,3.55-5.85,8.53-13.71,13.56Z"/>
    <path class="cls-7" d="M1016.3,765.52c-14.61,18.49-10.36,50.55,8.77,54.93,17.9,4.09,28.47-14.49,28-31.78-.69-25.7-18.66-34.99-21.92-35.44-3.52-.48-9.07,4.97-14.86,12.29Z"/>
    <path class="cls-4" d="M1068.93,732.4c10.53-6.73,17.29-4.36,20.31-1.02"/>
    <path class="cls-4" d="M1054.46,716.42c7.75-9.81,6.06-16.77,3.04-20.11"/>
  </g>
  <g>
    <path class="cls-9" d="M1804.14,922.19l-10.77-1.07,7.56-12.12,5.76,9.04c1.22,1.91-.3,4.38-2.56,4.16Z"/>
    <path class="cls-13" d="M1773.95,867.51c17.32,10.8,33.62,30.81,23.19,47.54-11.3,18.12-35.32,10.48-52.64-.32-17.32-10.8-24.76-30.13-16.63-43.17,8.13-13.04,28.76-14.85,46.08-4.05Z"/>
    <path class="cls-4" d="M1766.02,907.11c6.62-3.49,10.07-8.88,10.16-16.28"/>
    <path class="cls-4" d="M1770.53,918.8c11.57-5.3,18.04-15.68,19.43-31.15"/>
    <circle class="cls-9" cx="1723.22" cy="869.09" r="24.81"/>
    <path class="cls-7" d="M1754.79,890.19c17.65,15.61,19.14,47.92,1.09,55.61-16.89,7.2-30.59-9.23-33.19-26.32-3.87-25.42,12.17-37.74,15.3-38.76,3.38-1.1,9.81,3.28,16.8,9.47Z"/>
    <path class="cls-7" d="M1756.05,888.18c21.78,8.98,51.45-3.89,50.42-23.48-.97-18.34-21.74-23.41-38.24-18.23-24.53,7.71-28.54,27.53-28.08,30.79.5,3.52,7.26,7.36,15.89,10.92Z"/>
    <path class="cls-4" d="M1709.78,846.63c-9.36-8.29-8.93-15.43-6.55-19.25"/>
    <path class="cls-4" d="M1698.37,864.92c-11.56-4.76-17.79-1.24-20.17,2.59"/>
  </g>
  <g>
    <path class="cls-9" d="M247.75,947.69l-8.78-6.33,12.62-6.69.45,10.71c.1,2.26-2.46,3.64-4.3,2.31Z"/>
    <path class="cls-13" d="M249.07,885.25c9.56,18.03,13.62,43.52-3.79,52.76-18.87,10-35.82-8.65-45.38-26.69-9.56-18.03-6.3-38.48,7.27-45.68,13.58-7.2,32.33,1.58,41.9,19.61Z"/>
    <path class="cls-4" d="M222.33,915.53c7.47.3,13.16-2.63,16.96-8.99"/>
    <path class="cls-4" d="M220.37,927.9c12.66,1.22,23.48-4.52,32.44-17.2"/>
    <circle class="cls-9" cx="204.38" cy="861.16" r="24.81"/>
    <path class="cls-7" d="M221.11,895.26c7.43,22.36-7.48,51.06-26.96,48.65-18.22-2.25-21.83-23.32-15.5-39.42,9.41-23.93,29.46-26.54,32.68-25.85,3.47.75,6.84,7.76,9.78,16.62Z"/>
    <path class="cls-7" d="M223.2,894.15c14.34,18.7,46.46,22.45,55.4,4.98,8.36-16.35-7.06-31.16-23.93-34.95-25.08-5.64-38.5,9.49-39.74,12.55-1.33,3.3,2.59,10.01,8.27,17.42Z"/>
    <path class="cls-4" d="M204.02,835c-3.94-11.86.01-17.83,3.99-19.94"/>
    <path class="cls-4" d="M184.98,845.09c-7.61-9.92-14.77-9.99-18.75-7.88"/>
  </g>
</svg>