<?xml version="1.0" encoding="UTF-8"?>
<svg id="Layer_1" data-name="Layer 1" xmlns="http://www.w3.org/2000/svg" viewBox="0 0 60 60">
  <defs>
    <style>
      .cls-1 {
        fill: #f9f6f0;
        stroke: #888e91;
      }

      .cls-1, .cls-2, .cls-3, .cls-4 {
        stroke-miterlimit: 10;
        stroke-width: 2.56px;
      }

      .cls-2 {
        fill: #ffe49b;
      }

      .cls-2, .cls-3, .cls-4 {
        stroke: #212121;
        stroke-linecap: round;
      }

      .cls-3 {
        fill: none;
      }

      .cls-4 {
        fill: #494743;
      }
    </style>
  </defs>
  <path class="cls-4" d="M6.02,49.15l1.75-4.4,4.21,4.63-4.51,1.34c-.95.28-1.82-.65-1.45-1.57Z"/>
  <path class="cls-2" d="M32.76,43c-6.65,5.99-17.07,10.45-22.88,4.06-6.3-6.92-.18-16.11,6.47-22.1,6.65-5.99,15.71-6.81,20.25-1.82,4.53,4.98,2.82,13.88-3.83,19.87Z"/>
  <path class="cls-3" d="M16.98,34.92c.68,3.2,2.54,5.3,5.66,6.22"/>
  <path class="cls-3" d="M11.49,35.42c.85,5.5,4.46,9.47,10.83,11.9"/>
  <path class="cls-4" d="M45.52,29.52c-4.46,4.02-11.36,3.68-15.4-.76s-3.7-11.31.77-15.33,11.36-3.68,15.4.76c4.04,4.44,3.7,11.31-.77,15.33Z"/>
  <path class="cls-1" d="M25.48,32.23c-8.72,5.55-22.56,2.31-23.63-6.2-1.01-7.97,7.58-11.76,15.12-10.81,11.21,1.42,14.49,9.64,14.54,11.08.06,1.55-2.57,3.73-6.02,5.93Z"/>
  <path class="cls-1" d="M26.18,33c-6.42,8.09-4.55,22.11,3.86,24.02,7.87,1.79,12.51-6.34,12.31-13.9-.3-11.24-8.2-15.3-9.63-15.5-1.55-.21-3.99,2.17-6.53,5.38Z"/>
  <path class="cls-3" d="M49.31,18.51c4.63-2.94,7.6-1.91,8.93-.45"/>
  <path class="cls-3" d="M42.95,11.53c3.4-4.29,2.66-7.33,1.33-8.79"/>
</svg>