<?xml version="1.0" encoding="UTF-8"?>
<svg id="Layer_1" xmlns="http://www.w3.org/2000/svg" version="1.1" viewBox="0 0 60 60">
  <!-- Generator: Adobe Illustrator 29.8.1, SVG Export Plug-In . SVG Version: 2.1.1 Build 2)  -->
  <defs>
    <style>
      .st0 {
        fill: #f9f6f0;
        stroke: #888e91;
      }

      .st0, .st1, .st2, .st3 {
        stroke-miterlimit: 10;
        stroke-width: 2.6px;
      }

      .st1 {
        fill: #ffe49b;
      }

      .st1, .st2, .st3 {
        stroke: #212121;
        stroke-linecap: round;
      }

      .st2 {
        fill: #494743;
      }

      .st3 {
        fill: none;
      }
    </style>
  </defs>
  <path class="st2" d="M54,49.2l-1.8-4.4-4.2,4.6,4.5,1.3c1,.3,1.8-.7,1.4-1.6Z"/>
  <path class="st1" d="M27.2,43c6.6,6,17.1,10.4,22.9,4.1,6.3-6.9.2-16.1-6.5-22.1s-15.7-6.8-20.2-1.8c-4.5,5-2.8,13.9,3.8,19.9Z"/>
  <path class="st3" d="M43,34.9c-.7,3.2-2.5,5.3-5.7,6.2"/>
  <path class="st3" d="M48.5,35.4c-.8,5.5-4.5,9.5-10.8,11.9"/>
  <path class="st2" d="M14.5,29.5c4.5,4,11.4,3.7,15.4-.8s3.7-11.3-.8-15.3-11.4-3.7-15.4.8c-4,4.4-3.7,11.3.8,15.3Z"/>
  <path class="st0" d="M34.5,32.2c8.7,5.6,22.6,2.3,23.6-6.2s-7.6-11.8-15.1-10.8c-11.2,1.4-14.5,9.6-14.5,11.1s2.6,3.7,6,5.9Z"/>
  <path class="st0" d="M33.8,33c6.4,8.1,4.6,22.1-3.9,24-7.9,1.8-12.5-6.3-12.3-13.9.3-11.2,8.2-15.3,9.6-15.5s4,2.2,6.5,5.4Z"/>
  <path class="st3" d="M10.7,18.5c-4.6-2.9-7.6-1.9-8.9-.4"/>
  <path class="st3" d="M17,11.5c-3.4-4.3-2.7-7.3-1.3-8.8"/>
</svg>