<?xml version="1.0" encoding="UTF-8"?>
<svg id="Layer_8" data-name="Layer 8" xmlns="http://www.w3.org/2000/svg" viewBox="0 0 71.01 58.19">
  <defs>
    <style>
      .cls-1 {
        fill: #37223a;
      }

      .cls-1, .cls-2, .cls-3, .cls-4, .cls-5 {
        stroke: #37223a;
        stroke-miterlimit: 10;
        stroke-width: 2.07px;
      }

      .cls-1, .cls-3, .cls-4, .cls-5 {
        stroke-linecap: round;
      }

      .cls-2 {
        fill: #f0eadb;
      }

      .cls-3 {
        fill: #f2e09e;
      }

      .cls-4 {
        fill: #494743;
      }

      .cls-6 {
        fill: #ecb933;
      }

      .cls-5 {
        fill: none;
      }
    </style>
  </defs>
  <polygon class="cls-6" points="52.35 0 18.75 0 1.95 29.1 18.75 58.19 52.35 58.19 69.15 29.1 52.35 0"/>
  <path class="cls-4" d="M21.51,49.12l.42-3.8,4.26,2.71-3.21,2.01c-.68.42-1.55-.12-1.46-.92Z"/>
  <path class="cls-3" d="M40.93,38.64c-3.87,6.08-11,11.77-16.87,8.03-6.36-4.05-3.58-12.52.29-18.6s10.73-8.65,15.31-5.73,5.15,10.21,1.28,16.29Z"/>
  <path class="cls-5" d="M26.97,35.7c1.21,2.35,3.1,3.59,5.72,3.64"/>
  <path class="cls-5" d="M22.82,37.26c1.83,4.1,5.48,6.43,10.94,6.97"/>
  <circle class="cls-1" cx="40.55" cy="20.71" r="8.77"/>
  <path class="cls-2" d="M32.98,31.79c-5.58,6.18-17,6.6-19.65.2-2.49-5.99,3.36-10.77,9.41-11.64,8.99-1.28,13.29,4.43,13.64,5.54.38,1.2-1.19,3.45-3.4,5.9Z"/>
  <path class="cls-2" d="M33.69,32.24c-3.25,7.67,1.2,18.19,8.13,17.89,6.48-.28,8.34-7.6,6.57-13.45-2.64-8.69-9.63-10.18-10.78-10.02-1.24.17-2.63,2.54-3.91,5.58Z"/>
  <path class="cls-5" d="M48.53,16.04c2.96-3.28,5.48-3.1,6.82-2.25"/>
  <path class="cls-5" d="M42.1,11.95c1.72-4.07.5-6.28-.85-7.14"/>
</svg>