<?xml version="1.0" encoding="UTF-8"?>
<svg id="Layer_3" data-name="Layer 3" xmlns="http://www.w3.org/2000/svg" viewBox="0 0 1920 965.67">
  <defs>
    <style>
      .cls-1 {
        fill: #ecb933;
      }

      .cls-1, .cls-2 {
        opacity: .15;
      }

      .cls-3 {
        fill: #ddd5c5;
      }

      .cls-4, .cls-5, .cls-6 {
        fill: #e19c31;
      }

      .cls-7 {
        fill: none;
      }

      .cls-7, .cls-5, .cls-6 {
        stroke: #e19c31;
        stroke-miterlimit: 10;
        stroke-width: 2.01px;
      }

      .cls-7, .cls-6 {
        stroke-linecap: round;
      }
    </style>
  </defs>
  <rect class="cls-3" y="-541.42" width="1920" height="3240"/>
  <g id="Layer_9" data-name="Layer 9">
    <polygon class="cls-1" points="-114.01 -37.36 -114.01 38.82 -48.04 76.91 17.94 38.82 17.94 -37.36 -48.04 -75.45 -114.01 -37.36"/>
    <polygon class="cls-1" points="302.05 -38.09 302.05 38.09 368.03 76.18 434 38.09 434 -38.09 368.03 -76.18 302.05 -38.09"/>
    <polygon class="cls-1" points="232.92 563.5 232.92 639.68 298.89 677.77 364.87 639.68 364.87 563.5 298.89 525.41 232.92 563.5"/>
    <polygon class="cls-1" points="302.05 442.7 302.05 518.88 368.03 556.97 434 518.88 434 442.7 368.03 404.61 302.05 442.7"/>
    <polygon class="cls-1" points="24.57 923.28 24.57 999.46 90.54 1037.55 156.51 999.46 156.51 923.28 90.54 885.19 24.57 923.28"/>
    <polygon class="cls-1" points="163.3 923.28 163.3 999.46 229.28 1037.55 295.25 999.46 295.25 923.28 229.28 885.19 163.3 923.28"/>
    <polygon class="cls-1" points="94.17 804.15 94.17 880.33 160.14 918.42 226.12 880.33 226.12 804.15 160.14 766.06 94.17 804.15"/>
    <polygon class="cls-1" points="24.57 683.36 24.57 759.54 90.54 797.63 156.51 759.54 156.51 683.36 90.54 645.27 24.57 683.36"/>
    <polygon class="cls-1" points="163.3 683.36 163.3 759.54 229.28 797.63 295.25 759.54 295.25 683.36 229.28 645.27 163.3 683.36"/>
    <polygon class="cls-1" points="302.05 922.56 302.05 998.74 368.03 1036.83 434 998.74 434 922.56 368.03 884.47 302.05 922.56"/>
    <polygon class="cls-1" points="232.92 803.42 232.92 879.6 298.89 917.7 364.87 879.6 364.87 803.42 298.89 765.33 232.92 803.42"/>
    <polygon class="cls-1" points="302.05 682.63 302.05 758.81 368.03 796.9 434 758.81 434 682.63 368.03 644.54 302.05 682.63"/>
    <polygon class="cls-1" points="94.17 323.36 94.17 399.54 160.15 437.63 226.12 399.54 226.12 323.36 160.15 285.27 94.17 323.36"/>
    <polygon class="cls-1" points="24.57 202.57 24.57 278.75 90.54 316.84 156.51 278.75 156.51 202.57 90.54 164.48 24.57 202.57"/>
    <polygon class="cls-1" points="163.31 202.57 163.31 278.75 229.28 316.84 295.25 278.75 295.25 202.57 229.28 164.48 163.31 202.57"/>
    <polygon class="cls-1" points="94.17 83.43 94.17 159.61 160.15 197.7 226.12 159.61 226.12 83.43 160.15 45.34 94.17 83.43"/>
    <polygon class="cls-1" points="24.57 -37.36 24.57 38.82 90.54 76.91 156.51 38.82 156.51 -37.36 90.54 -75.45 24.57 -37.36"/>
    <polygon class="cls-1" points="163.31 -37.36 163.31 38.82 229.28 76.91 295.25 38.82 295.25 -37.36 229.28 -75.45 163.31 -37.36"/>
    <polygon class="cls-1" points="-114.01 443.43 -114.01 519.61 -48.04 557.7 17.94 519.61 17.94 443.43 -48.04 405.34 -114.01 443.43"/>
    <polygon class="cls-1" points="-44.88 322.63 -44.88 398.81 21.1 436.9 87.07 398.81 87.07 322.63 21.1 284.54 -44.88 322.63"/>
    <polygon class="cls-1" points="-114.01 203.5 -114.01 279.68 -48.04 317.77 17.94 279.68 17.94 203.5 -48.04 165.41 -114.01 203.5"/>
    <polygon class="cls-1" points="-44.88 82.71 -44.88 158.89 21.1 196.98 87.07 158.89 87.07 82.71 21.1 44.62 -44.88 82.71"/>
    <polygon class="cls-1" points="94.17 564.23 94.17 640.41 160.14 678.5 226.12 640.41 226.12 564.23 160.15 526.14 94.17 564.23"/>
    <polygon class="cls-1" points="24.57 443.43 24.57 519.61 90.54 557.7 156.51 519.61 156.51 443.43 90.54 405.34 24.57 443.43"/>
    <polygon class="cls-1" points="163.31 443.43 163.31 519.61 229.28 557.7 295.25 519.61 295.25 443.43 229.28 405.34 163.31 443.43"/>
    <polygon class="cls-1" points="-114.01 924.22 -114.01 1000.4 -48.04 1038.49 17.94 1000.4 17.94 924.22 -48.04 886.13 -114.01 924.22"/>
    <polygon class="cls-1" points="-44.88 803.42 -44.88 879.6 21.1 917.69 87.07 879.6 87.07 803.42 21.1 765.33 -44.88 803.42"/>
    <polygon class="cls-1" points="-114.01 684.29 -114.01 760.47 -48.04 798.56 17.94 760.47 17.94 684.29 -48.04 646.2 -114.01 684.29"/>
    <polygon class="cls-1" points="-44.88 563.5 -44.88 639.68 21.1 677.77 87.07 639.68 87.07 563.5 21.1 525.41 -44.88 563.5"/>
    <polygon class="cls-1" points="232.92 322.63 232.92 398.81 298.89 436.9 364.87 398.81 364.87 322.63 298.89 284.54 232.92 322.63"/>
    <polygon class="cls-1" points="302.05 201.84 302.05 278.02 368.03 316.11 434 278.02 434 201.84 368.03 163.75 302.05 201.84"/>
    <polygon class="cls-1" points="232.92 82.71 232.92 158.89 298.89 196.98 364.87 158.89 364.87 82.71 298.89 44.62 232.92 82.71"/>
    <polygon class="cls-1" points="441.27 -37.36 441.27 38.82 507.25 76.91 573.22 38.82 573.22 -37.36 507.25 -75.45 441.27 -37.36"/>
    <polygon class="cls-1" points="857.34 -38.09 857.34 38.09 923.31 76.18 989.29 38.09 989.29 -38.09 923.31 -76.18 857.34 -38.09"/>
    <polygon class="cls-1" points="788.21 563.5 788.21 639.68 854.18 677.77 920.15 639.68 920.15 563.5 854.18 525.41 788.21 563.5"/>
    <polygon class="cls-1" points="857.34 442.7 857.34 518.88 923.31 556.97 989.29 518.88 989.29 442.7 923.31 404.61 857.34 442.7"/>
    <polygon class="cls-1" points="579.85 923.28 579.85 999.46 645.83 1037.55 711.8 999.46 711.8 923.28 645.83 885.19 579.85 923.28"/>
    <polygon class="cls-1" points="718.59 923.28 718.59 999.46 784.56 1037.55 850.54 999.46 850.54 923.28 784.56 885.19 718.59 923.28"/>
    <polygon class="cls-1" points="649.46 804.15 649.46 880.33 715.43 918.42 781.4 880.33 781.4 804.15 715.43 766.06 649.46 804.15"/>
    <polygon class="cls-1" points="579.85 683.36 579.85 759.54 645.83 797.63 711.8 759.54 711.8 683.36 645.83 645.27 579.85 683.36"/>
    <polygon class="cls-1" points="718.59 683.36 718.59 759.54 784.56 797.63 850.54 759.54 850.54 683.36 784.56 645.27 718.59 683.36"/>
    <polygon class="cls-1" points="857.34 922.56 857.34 998.74 923.31 1036.83 989.29 998.74 989.29 922.56 923.31 884.47 857.34 922.56"/>
    <polygon class="cls-1" points="788.21 803.42 788.21 879.6 854.18 917.7 920.15 879.6 920.15 803.42 854.18 765.33 788.21 803.42"/>
    <polygon class="cls-1" points="857.34 682.63 857.34 758.81 923.31 796.9 989.29 758.81 989.29 682.63 923.31 644.54 857.34 682.63"/>
    <polygon class="cls-1" points="649.46 323.36 649.46 399.54 715.43 437.63 781.4 399.54 781.4 323.36 715.43 285.27 649.46 323.36"/>
    <polygon class="cls-1" points="579.85 202.57 579.85 278.75 645.83 316.84 711.8 278.75 711.8 202.57 645.83 164.48 579.85 202.57"/>
    <polygon class="cls-1" points="718.59 202.57 718.59 278.75 784.56 316.84 850.54 278.75 850.54 202.57 784.56 164.48 718.59 202.57"/>
    <polygon class="cls-1" points="649.46 83.43 649.46 159.61 715.43 197.7 781.4 159.61 781.4 83.43 715.43 45.34 649.46 83.43"/>
    <polygon class="cls-1" points="579.85 -37.36 579.85 38.82 645.83 76.91 711.8 38.82 711.8 -37.36 645.83 -75.45 579.85 -37.36"/>
    <polygon class="cls-1" points="718.59 -37.36 718.59 38.82 784.56 76.91 850.54 38.82 850.54 -37.36 784.56 -75.45 718.59 -37.36"/>
    <polygon class="cls-1" points="441.27 443.43 441.27 519.61 507.25 557.7 573.22 519.61 573.22 443.43 507.25 405.34 441.27 443.43"/>
    <polygon class="cls-1" points="371.67 322.63 371.67 398.81 437.64 436.9 503.62 398.81 503.62 322.63 437.64 284.54 371.67 322.63"/>
    <polygon class="cls-1" points="510.41 322.63 510.41 398.81 576.38 436.9 642.36 398.81 642.36 322.63 576.38 284.54 510.41 322.63"/>
    <polygon class="cls-1" points="441.27 203.5 441.27 279.68 507.25 317.77 573.22 279.68 573.22 203.5 507.25 165.41 441.27 203.5"/>
    <polygon class="cls-1" points="371.67 82.71 371.67 158.89 437.64 196.98 503.62 158.89 503.62 82.71 437.64 44.62 371.67 82.71"/>
    <polygon class="cls-1" points="510.41 82.71 510.41 158.89 576.38 196.98 642.36 158.89 642.36 82.71 576.38 44.62 510.41 82.71"/>
    <polygon class="cls-1" points="649.46 564.23 649.46 640.41 715.43 678.5 781.4 640.41 781.4 564.23 715.43 526.14 649.46 564.23"/>
    <polygon class="cls-1" points="579.85 443.43 579.85 519.61 645.83 557.7 711.8 519.61 711.8 443.43 645.83 405.34 579.85 443.43"/>
    <polygon class="cls-1" points="718.59 443.43 718.59 519.61 784.56 557.7 850.54 519.61 850.54 443.43 784.56 405.34 718.59 443.43"/>
    <polygon class="cls-1" points="441.27 924.22 441.27 1000.4 507.25 1038.49 573.22 1000.4 573.22 924.22 507.25 886.13 441.27 924.22"/>
    <polygon class="cls-1" points="371.67 803.42 371.67 879.6 437.64 917.69 503.62 879.6 503.62 803.42 437.64 765.33 371.67 803.42"/>
    <polygon class="cls-1" points="510.41 803.42 510.41 879.6 576.38 917.69 642.36 879.6 642.36 803.42 576.38 765.33 510.41 803.42"/>
    <polygon class="cls-1" points="441.27 684.29 441.27 760.47 507.25 798.56 573.22 760.47 573.22 684.29 507.25 646.2 441.27 684.29"/>
    <polygon class="cls-1" points="371.67 563.5 371.67 639.68 437.64 677.77 503.62 639.68 503.62 563.5 437.64 525.41 371.67 563.5"/>
    <polygon class="cls-1" points="510.41 563.5 510.41 639.68 576.38 677.77 642.36 639.68 642.36 563.5 576.38 525.41 510.41 563.5"/>
    <polygon class="cls-1" points="788.21 322.63 788.21 398.81 854.18 436.9 920.15 398.81 920.15 322.63 854.18 284.54 788.21 322.63"/>
    <polygon class="cls-1" points="857.34 201.84 857.34 278.02 923.31 316.11 989.29 278.02 989.29 201.84 923.31 163.75 857.34 201.84"/>
    <polygon class="cls-1" points="788.21 82.71 788.21 158.89 854.18 196.98 920.15 158.89 920.15 82.71 854.18 44.62 788.21 82.71"/>
    <polygon class="cls-1" points="996.51 -37.36 996.51 38.82 1062.48 76.91 1128.45 38.82 1128.46 -37.36 1062.48 -75.45 996.51 -37.36"/>
    <polygon class="cls-1" points="1412.57 -38.09 1412.57 38.09 1478.55 76.18 1544.52 38.09 1544.52 -38.09 1478.55 -76.18 1412.57 -38.09"/>
    <polygon class="cls-1" points="1343.44 563.5 1343.44 639.68 1409.41 677.77 1475.39 639.68 1475.39 563.5 1409.41 525.41 1343.44 563.5"/>
    <polygon class="cls-1" points="1412.57 442.7 1412.57 518.88 1478.55 556.97 1544.52 518.88 1544.52 442.7 1478.55 404.61 1412.57 442.7"/>
    <polygon class="cls-1" points="1135.08 923.28 1135.08 999.46 1201.06 1037.55 1267.03 999.46 1267.03 923.28 1201.06 885.19 1135.08 923.28"/>
    <polygon class="cls-1" points="1273.82 923.28 1273.82 999.46 1339.8 1037.55 1405.77 999.46 1405.77 923.28 1339.8 885.19 1273.82 923.28"/>
    <polygon class="cls-1" points="1204.69 804.15 1204.69 880.33 1270.66 918.42 1336.64 880.33 1336.64 804.15 1270.66 766.06 1204.69 804.15"/>
    <polygon class="cls-1" points="1135.08 683.36 1135.08 759.54 1201.06 797.63 1267.03 759.54 1267.03 683.36 1201.06 645.27 1135.08 683.36"/>
    <polygon class="cls-1" points="1273.82 683.36 1273.82 759.54 1339.8 797.63 1405.77 759.54 1405.77 683.36 1339.8 645.27 1273.82 683.36"/>
    <polygon class="cls-1" points="1412.57 922.56 1412.57 998.74 1478.55 1036.83 1544.52 998.74 1544.52 922.56 1478.55 884.47 1412.57 922.56"/>
    <polygon class="cls-1" points="1343.44 803.42 1343.44 879.6 1409.41 917.7 1475.39 879.6 1475.39 803.42 1409.41 765.33 1343.44 803.42"/>
    <polygon class="cls-1" points="1412.57 682.63 1412.57 758.81 1478.55 796.9 1544.52 758.81 1544.52 682.63 1478.55 644.54 1412.57 682.63"/>
    <polygon class="cls-1" points="1204.69 323.36 1204.69 399.54 1270.66 437.63 1336.64 399.54 1336.64 323.36 1270.66 285.27 1204.69 323.36"/>
    <polygon class="cls-1" points="1135.08 202.57 1135.08 278.75 1201.06 316.84 1267.03 278.75 1267.03 202.57 1201.06 164.48 1135.08 202.57"/>
    <polygon class="cls-1" points="1273.82 202.57 1273.82 278.75 1339.8 316.84 1405.77 278.75 1405.77 202.57 1339.8 164.48 1273.82 202.57"/>
    <polygon class="cls-1" points="1204.69 83.43 1204.69 159.61 1270.66 197.7 1336.64 159.61 1336.64 83.43 1270.66 45.34 1204.69 83.43"/>
    <polygon class="cls-1" points="1135.08 -37.36 1135.08 38.82 1201.06 76.91 1267.03 38.82 1267.03 -37.36 1201.06 -75.45 1135.08 -37.36"/>
    <polygon class="cls-1" points="1273.82 -37.36 1273.82 38.82 1339.8 76.91 1405.77 38.82 1405.77 -37.36 1339.8 -75.45 1273.82 -37.36"/>
    <polygon class="cls-1" points="996.51 443.43 996.51 519.61 1062.48 557.7 1128.45 519.61 1128.45 443.43 1062.48 405.34 996.51 443.43"/>
    <polygon class="cls-1" points="926.9 322.63 926.9 398.81 992.88 436.9 1058.85 398.81 1058.85 322.63 992.88 284.54 926.9 322.63"/>
    <polygon class="cls-1" points="1065.64 322.63 1065.64 398.81 1131.61 436.9 1197.59 398.81 1197.59 322.63 1131.61 284.54 1065.64 322.63"/>
    <polygon class="cls-1" points="996.51 203.5 996.51 279.68 1062.48 317.77 1128.45 279.68 1128.45 203.5 1062.48 165.41 996.51 203.5"/>
    <polygon class="cls-1" points="926.9 82.71 926.9 158.89 992.88 196.98 1058.85 158.89 1058.85 82.71 992.88 44.62 926.9 82.71"/>
    <polygon class="cls-1" points="1065.64 82.71 1065.64 158.89 1131.61 196.98 1197.59 158.89 1197.59 82.71 1131.61 44.62 1065.64 82.71"/>
    <polygon class="cls-1" points="1204.69 564.23 1204.69 640.41 1270.66 678.5 1336.64 640.41 1336.64 564.23 1270.66 526.14 1204.69 564.23"/>
    <polygon class="cls-1" points="1135.08 443.43 1135.08 519.61 1201.06 557.7 1267.03 519.61 1267.03 443.43 1201.06 405.34 1135.08 443.43"/>
    <polygon class="cls-1" points="1273.82 443.43 1273.82 519.61 1339.8 557.7 1405.77 519.61 1405.77 443.43 1339.8 405.34 1273.82 443.43"/>
    <polygon class="cls-1" points="996.51 924.22 996.51 1000.4 1062.48 1038.49 1128.45 1000.4 1128.45 924.22 1062.48 886.13 996.51 924.22"/>
    <polygon class="cls-1" points="926.9 803.42 926.9 879.6 992.88 917.69 1058.85 879.6 1058.85 803.42 992.88 765.33 926.9 803.42"/>
    <polygon class="cls-1" points="1065.64 803.42 1065.64 879.6 1131.61 917.69 1197.59 879.6 1197.59 803.42 1131.61 765.33 1065.64 803.42"/>
    <polygon class="cls-1" points="996.51 684.29 996.51 760.47 1062.48 798.56 1128.45 760.47 1128.45 684.29 1062.48 646.2 996.51 684.29"/>
    <polygon class="cls-1" points="926.9 563.5 926.9 639.68 992.88 677.77 1058.85 639.68 1058.85 563.5 992.88 525.41 926.9 563.5"/>
    <polygon class="cls-1" points="1065.64 563.5 1065.64 639.68 1131.61 677.77 1197.59 639.68 1197.59 563.5 1131.61 525.41 1065.64 563.5"/>
    <polygon class="cls-1" points="1343.44 322.63 1343.44 398.81 1409.41 436.9 1475.39 398.81 1475.39 322.63 1409.41 284.54 1343.44 322.63"/>
    <polygon class="cls-1" points="1412.57 201.84 1412.57 278.02 1478.55 316.11 1544.52 278.02 1544.52 201.84 1478.55 163.75 1412.57 201.84"/>
    <polygon class="cls-1" points="1343.44 82.71 1343.44 158.89 1409.41 196.98 1475.39 158.89 1475.39 82.71 1409.41 44.62 1343.44 82.71"/>
    <polygon class="cls-1" points="1550.95 -37.36 1550.95 38.82 1616.93 76.91 1682.9 38.82 1682.9 -37.36 1616.93 -75.45 1550.95 -37.36"/>
    <polygon class="cls-1" points="1897.88 563.5 1897.88 639.68 1963.86 677.77 2029.83 639.68 2029.83 563.5 1963.86 525.41 1897.88 563.5"/>
    <polygon class="cls-1" points="1689.53 923.28 1689.53 999.46 1755.5 1037.55 1821.48 999.46 1821.48 923.28 1755.5 885.19 1689.53 923.28"/>
    <polygon class="cls-1" points="1828.27 923.28 1828.27 999.46 1894.24 1037.55 1960.21 999.46 1960.21 923.28 1894.24 885.19 1828.27 923.28"/>
    <polygon class="cls-1" points="1759.13 804.15 1759.13 880.33 1825.11 918.42 1891.08 880.33 1891.08 804.15 1825.11 766.06 1759.13 804.15"/>
    <polygon class="cls-1" points="1689.53 683.36 1689.53 759.54 1755.5 797.63 1821.48 759.54 1821.48 683.36 1755.5 645.27 1689.53 683.36"/>
    <polygon class="cls-1" points="1828.27 683.36 1828.27 759.54 1894.24 797.63 1960.21 759.54 1960.21 683.36 1894.24 645.27 1828.27 683.36"/>
    <polygon class="cls-1" points="1897.88 803.42 1897.88 879.6 1963.86 917.7 2029.83 879.6 2029.83 803.42 1963.86 765.33 1897.88 803.42"/>
    <polygon class="cls-1" points="1759.13 323.36 1759.13 399.54 1825.11 437.63 1891.08 399.54 1891.08 323.36 1825.11 285.27 1759.13 323.36"/>
    <polygon class="cls-1" points="1689.53 202.57 1689.53 278.75 1755.5 316.84 1821.48 278.75 1821.48 202.57 1755.5 164.48 1689.53 202.57"/>
    <polygon class="cls-1" points="1828.27 202.57 1828.27 278.75 1894.24 316.84 1960.22 278.75 1960.22 202.57 1894.24 164.48 1828.27 202.57"/>
    <polygon class="cls-1" points="1759.13 83.43 1759.13 159.61 1825.11 197.7 1891.08 159.61 1891.08 83.43 1825.11 45.34 1759.13 83.43"/>
    <polygon class="cls-1" points="1689.53 -37.36 1689.53 38.82 1755.5 76.91 1821.48 38.82 1821.48 -37.36 1755.5 -75.45 1689.53 -37.36"/>
    <polygon class="cls-1" points="1828.27 -37.36 1828.27 38.82 1894.24 76.91 1960.22 38.82 1960.22 -37.36 1894.24 -75.45 1828.27 -37.36"/>
    <polygon class="cls-1" points="1550.95 443.43 1550.95 519.61 1616.93 557.7 1682.9 519.61 1682.9 443.43 1616.93 405.34 1550.95 443.43"/>
    <polygon class="cls-1" points="1481.35 322.63 1481.35 398.81 1547.32 436.9 1613.29 398.81 1613.29 322.63 1547.32 284.54 1481.35 322.63"/>
    <polygon class="cls-1" points="1620.09 322.63 1620.09 398.81 1686.06 436.9 1752.03 398.81 1752.03 322.63 1686.06 284.54 1620.09 322.63"/>
    <polygon class="cls-1" points="1550.95 203.5 1550.95 279.68 1616.93 317.77 1682.9 279.68 1682.9 203.5 1616.93 165.41 1550.95 203.5"/>
    <polygon class="cls-1" points="1481.35 82.71 1481.35 158.89 1547.32 196.98 1613.29 158.89 1613.29 82.71 1547.32 44.62 1481.35 82.71"/>
    <polygon class="cls-1" points="1620.09 82.71 1620.09 158.89 1686.06 196.98 1752.03 158.89 1752.03 82.71 1686.06 44.62 1620.09 82.71"/>
    <polygon class="cls-1" points="1759.13 564.23 1759.13 640.41 1825.11 678.5 1891.08 640.41 1891.08 564.23 1825.11 526.14 1759.13 564.23"/>
    <polygon class="cls-1" points="1689.53 443.43 1689.53 519.61 1755.5 557.7 1821.48 519.61 1821.48 443.43 1755.5 405.34 1689.53 443.43"/>
    <polygon class="cls-1" points="1828.27 443.43 1828.27 519.61 1894.24 557.7 1960.21 519.61 1960.22 443.43 1894.24 405.34 1828.27 443.43"/>
    <polygon class="cls-1" points="1550.95 924.22 1550.95 1000.4 1616.92 1038.49 1682.9 1000.4 1682.9 924.22 1616.92 886.13 1550.95 924.22"/>
    <polygon class="cls-1" points="1481.35 803.42 1481.35 879.6 1547.32 917.69 1613.29 879.6 1613.29 803.42 1547.32 765.33 1481.35 803.42"/>
    <polygon class="cls-1" points="1620.08 803.42 1620.08 879.6 1686.06 917.69 1752.03 879.6 1752.03 803.42 1686.06 765.33 1620.08 803.42"/>
    <polygon class="cls-1" points="1550.95 684.29 1550.95 760.47 1616.92 798.56 1682.9 760.47 1682.9 684.29 1616.92 646.2 1550.95 684.29"/>
    <polygon class="cls-1" points="1481.35 563.5 1481.35 639.68 1547.32 677.77 1613.29 639.68 1613.29 563.5 1547.32 525.41 1481.35 563.5"/>
    <polygon class="cls-1" points="1620.09 563.5 1620.08 639.68 1686.06 677.77 1752.03 639.68 1752.03 563.5 1686.06 525.41 1620.09 563.5"/>
    <polygon class="cls-1" points="1897.88 322.63 1897.88 398.81 1963.86 436.9 2029.83 398.81 2029.83 322.63 1963.86 284.54 1897.88 322.63"/>
    <polygon class="cls-1" points="1897.88 82.71 1897.88 158.89 1963.86 196.98 2029.83 158.89 2029.83 82.71 1963.86 44.62 1897.88 82.71"/>
    <g class="cls-2">
      <path class="cls-6" d="M1823.1,171.04c.64,1.34,2.53,1.35,3.19.02l3.11-6.28-9.34-.13,3.04,6.39Z"/>
      <g>
        <path class="cls-4" d="M1819.27,144.8c3.86,2.28,7.57,2.34,11.33.16-2.38-3.35-4.1-7.23-4.73-11.34-.51-3.3-.77-6.31-.62-8.6,0,0-.02,0-.03,0-.01,0-.03,0-.04,0,.09,2.3-.26,5.3-.86,8.58-.75,4.09-2.58,7.92-5.04,11.2Z"/>
        <path class="cls-4" d="M1838.59,152.65c-.07.28-.24.54-.52.68-4.58,2.24-8.92,3.35-12.99,3.35-4.31,0-8.33-1.25-12.02-3.76-.46-.31-.58-.94-.27-1.4s.94-.58,1.4-.27c6.58,4.48,14.06,4.58,22.85.33-1.9-1.41-3.68-3.1-5.24-5.02-.04.03-.06.07-.1.09-2.18,1.28-4.38,1.92-6.6,1.92s-4.65-.7-6.98-2.1c-.04-.03-.07-.07-.11-.1-2.46,2.85-5.41,5.18-8.5,6.76,2.49,7.09,7.18,12.47,15.22,12.58,7.42.1,12.45-5.13,15.42-12.13-.53-.28-1.04-.6-1.56-.93Z"/>
      </g>
      <circle class="cls-6" cx="1825.44" cy="108.8" r="16.22"/>
      <path class="cls-5" d="M1824.31,133.6c-2.77,15.16-20.34,26.92-30.75,19.42-9.74-7.02-5.18-20.23,3.5-27.47,12.91-10.76,25.23-5.96,26.86-4.55,1.76,1.52,1.48,6.6.38,12.6Z"/>
      <path class="cls-5" d="M1825.86,133.63c2.34,15.23,19.58,27.47,30.19,20.27,9.93-6.74,5.75-20.08-2.73-27.56-12.61-11.12-25.06-6.66-26.72-5.29-1.8,1.47-1.66,6.55-.73,12.58Z"/>
      <path class="cls-7" d="M1833.46,93.69c1.47-8.04,5.61-10.22,8.56-10.18"/>
      <path class="cls-7" d="M1817.48,93.49c-1.25-8.08-5.32-10.37-8.27-10.41"/>
    </g>
    <g class="cls-2">
      <path class="cls-6" d="M1686.35,403.6c.64,1.34,2.53,1.35,3.19.02l3.11-6.28-9.34-.13,3.04,6.39Z"/>
      <g>
        <path class="cls-4" d="M1682.51,377.37c3.86,2.28,7.57,2.34,11.33.16-2.38-3.35-4.1-7.23-4.73-11.34-.51-3.3-.77-6.31-.62-8.6,0,0-.02,0-.03,0-.01,0-.03,0-.04,0,.09,2.3-.26,5.3-.86,8.58-.75,4.09-2.58,7.92-5.04,11.2Z"/>
        <path class="cls-4" d="M1701.84,385.21c-.07.28-.24.54-.52.68-4.58,2.24-8.92,3.35-12.99,3.35-4.31,0-8.33-1.25-12.02-3.76-.46-.31-.58-.94-.27-1.4s.94-.58,1.4-.27c6.58,4.48,14.06,4.58,22.85.33-1.9-1.41-3.68-3.1-5.24-5.02-.04.03-.06.07-.1.09-2.18,1.28-4.38,1.92-6.6,1.92s-4.65-.7-6.98-2.1c-.04-.03-.07-.07-.11-.1-2.46,2.85-5.41,5.18-8.5,6.76,2.49,7.09,7.18,12.47,15.22,12.58,7.42.1,12.45-5.13,15.42-12.13-.53-.28-1.04-.6-1.56-.93Z"/>
      </g>
      <circle class="cls-6" cx="1688.69" cy="341.37" r="16.22"/>
      <path class="cls-5" d="M1687.56,366.17c-2.77,15.16-20.34,26.92-30.75,19.42-9.74-7.02-5.18-20.23,3.5-27.47,12.91-10.76,25.23-5.96,26.86-4.55,1.76,1.52,1.48,6.6.38,12.6Z"/>
      <path class="cls-5" d="M1689.11,366.19c2.34,15.23,19.58,27.47,30.19,20.27,9.93-6.74,5.75-20.08-2.73-27.56-12.61-11.12-25.06-6.66-26.72-5.29-1.8,1.47-1.66,6.55-.73,12.58Z"/>
      <path class="cls-7" d="M1696.71,326.26c1.47-8.04,5.61-10.22,8.56-10.18"/>
      <path class="cls-7" d="M1680.73,326.06c-1.25-8.08-5.32-10.37-8.27-10.41"/>
    </g>
    <g class="cls-2">
      <path class="cls-6" d="M1823.25,645.06c.64,1.34,2.53,1.35,3.19.02l3.11-6.28-9.34-.13,3.04,6.39Z"/>
      <g>
        <path class="cls-4" d="M1819.42,618.83c3.86,2.28,7.57,2.34,11.33.16-2.38-3.35-4.1-7.23-4.73-11.34-.51-3.3-.77-6.31-.62-8.6,0,0-.02,0-.03,0-.01,0-.03,0-.04,0,.09,2.3-.26,5.3-.86,8.58-.75,4.09-2.58,7.92-5.04,11.2Z"/>
        <path class="cls-4" d="M1838.74,626.67c-.07.28-.24.54-.52.68-4.58,2.24-8.92,3.35-12.99,3.35-4.31,0-8.33-1.25-12.02-3.76-.46-.31-.58-.94-.27-1.4s.94-.58,1.4-.27c6.58,4.48,14.06,4.58,22.85.33-1.9-1.41-3.68-3.1-5.24-5.02-.04.03-.06.07-.1.09-2.18,1.28-4.38,1.92-6.6,1.92s-4.65-.7-6.98-2.1c-.04-.03-.07-.07-.11-.1-2.46,2.85-5.41,5.18-8.5,6.76,2.49,7.09,7.18,12.47,15.22,12.58,7.42.1,12.45-5.13,15.42-12.13-.53-.28-1.04-.6-1.56-.93Z"/>
      </g>
      <circle class="cls-6" cx="1825.59" cy="582.82" r="16.22"/>
      <path class="cls-5" d="M1824.46,607.63c-2.77,15.16-20.34,26.92-30.75,19.42-9.74-7.02-5.18-20.23,3.5-27.47,12.91-10.76,25.23-5.96,26.86-4.55,1.76,1.52,1.48,6.6.38,12.6Z"/>
      <path class="cls-5" d="M1826.01,607.65c2.34,15.23,19.58,27.47,30.19,20.27,9.93-6.74,5.75-20.08-2.73-27.56-12.61-11.12-25.06-6.66-26.72-5.29-1.8,1.47-1.66,6.55-.73,12.58Z"/>
      <path class="cls-7" d="M1833.61,567.71c1.47-8.04,5.61-10.22,8.56-10.18"/>
      <path class="cls-7" d="M1817.63,567.51c-1.25-8.08-5.32-10.37-8.27-10.41"/>
    </g>
    <g class="cls-2">
      <path class="cls-6" d="M1615.07,764.19c.64,1.34,2.53,1.35,3.19.02l3.11-6.28-9.34-.13,3.04,6.39Z"/>
      <g>
        <path class="cls-4" d="M1611.23,737.96c3.86,2.28,7.57,2.34,11.33.16-2.38-3.35-4.1-7.23-4.73-11.34-.51-3.3-.77-6.31-.62-8.6,0,0-.02,0-.03,0-.01,0-.03,0-.04,0,.09,2.3-.26,5.3-.86,8.58-.75,4.09-2.58,7.92-5.04,11.2Z"/>
        <path class="cls-4" d="M1630.56,745.8c-.07.28-.24.54-.52.68-4.58,2.24-8.92,3.35-12.99,3.35-4.31,0-8.33-1.25-12.02-3.76-.46-.31-.58-.94-.27-1.4s.94-.58,1.4-.27c6.58,4.48,14.06,4.58,22.85.33-1.9-1.41-3.68-3.1-5.24-5.02-.04.03-.06.07-.1.09-2.18,1.28-4.38,1.92-6.6,1.92s-4.65-.7-6.98-2.1c-.04-.03-.07-.07-.11-.1-2.46,2.85-5.41,5.18-8.5,6.76,2.49,7.09,7.18,12.47,15.22,12.58,7.42.1,12.45-5.13,15.42-12.13-.53-.28-1.04-.6-1.56-.93Z"/>
      </g>
      <circle class="cls-6" cx="1617.4" cy="701.96" r="16.22"/>
      <path class="cls-5" d="M1616.28,726.76c-2.77,15.16-20.34,26.92-30.75,19.42-9.74-7.02-5.18-20.23,3.5-27.47,12.91-10.76,25.23-5.96,26.86-4.55,1.76,1.52,1.48,6.6.38,12.6Z"/>
      <path class="cls-5" d="M1617.83,726.78c2.34,15.23,19.58,27.47,30.19,20.27,9.93-6.74,5.75-20.08-2.73-27.56-12.61-11.12-25.06-6.66-26.72-5.29-1.8,1.47-1.66,6.55-.73,12.58Z"/>
      <path class="cls-7" d="M1625.42,686.84c1.47-8.04,5.61-10.22,8.56-10.18"/>
      <path class="cls-7" d="M1609.45,686.65c-1.25-8.08-5.32-10.37-8.27-10.41"/>
    </g>
    <g class="cls-2">
      <path class="cls-6" d="M1823.1,892.24c.64,1.34,2.53,1.35,3.19.02l3.11-6.28-9.34-.13,3.04,6.39Z"/>
      <g>
        <path class="cls-4" d="M1819.27,866.01c3.86,2.28,7.57,2.34,11.33.16-2.38-3.35-4.1-7.23-4.73-11.34-.51-3.3-.77-6.31-.62-8.6,0,0-.02,0-.03,0-.01,0-.03,0-.04,0,.09,2.3-.26,5.3-.86,8.58-.75,4.09-2.58,7.92-5.04,11.2Z"/>
        <path class="cls-4" d="M1838.59,873.85c-.07.28-.24.54-.52.68-4.58,2.24-8.92,3.35-12.99,3.35-4.31,0-8.33-1.25-12.02-3.76-.46-.31-.58-.94-.27-1.4s.94-.58,1.4-.27c6.58,4.48,14.06,4.58,22.85.33-1.9-1.41-3.68-3.1-5.24-5.02-.04.03-.06.07-.1.09-2.18,1.28-4.38,1.92-6.6,1.92s-4.65-.7-6.98-2.1c-.04-.03-.07-.07-.11-.1-2.46,2.85-5.41,5.18-8.5,6.76,2.49,7.09,7.18,12.47,15.22,12.58,7.42.1,12.45-5.13,15.42-12.13-.53-.28-1.04-.6-1.56-.93Z"/>
      </g>
      <circle class="cls-6" cx="1825.44" cy="830" r="16.22"/>
      <path class="cls-5" d="M1824.31,854.81c-2.77,15.16-20.34,26.92-30.75,19.42-9.74-7.02-5.18-20.23,3.5-27.47,12.91-10.76,25.23-5.96,26.86-4.55,1.76,1.52,1.48,6.6.38,12.6Z"/>
      <path class="cls-5" d="M1825.86,854.83c2.34,15.23,19.58,27.47,30.19,20.27,9.93-6.74,5.75-20.08-2.73-27.56-12.61-11.12-25.06-6.66-26.72-5.29-1.8,1.47-1.66,6.55-.73,12.58Z"/>
      <path class="cls-7" d="M1833.46,814.89c1.47-8.04,5.61-10.22,8.56-10.18"/>
      <path class="cls-7" d="M1817.48,814.69c-1.25-8.08-5.32-10.37-8.27-10.41"/>
    </g>
    <g class="cls-2">
      <path class="cls-6" d="M297.04,412c.64,1.34,2.53,1.35,3.19.02l3.11-6.28-9.34-.13,3.04,6.39Z"/>
      <g>
        <path class="cls-4" d="M293.2,385.76c3.86,2.28,7.57,2.34,11.33.16-2.38-3.35-4.1-7.23-4.73-11.34-.51-3.3-.77-6.31-.62-8.6,0,0-.02,0-.03,0-.01,0-.03,0-.04,0,.09,2.3-.26,5.3-.86,8.58-.75,4.09-2.58,7.92-5.04,11.2Z"/>
        <path class="cls-4" d="M312.53,393.61c-.07.28-.24.54-.52.68-4.58,2.24-8.92,3.35-12.99,3.35-4.31,0-8.33-1.25-12.02-3.76-.46-.31-.58-.94-.27-1.4s.94-.58,1.4-.27c6.58,4.48,14.06,4.58,22.85.33-1.9-1.41-3.68-3.1-5.24-5.02-.04.03-.06.07-.1.09-2.18,1.28-4.38,1.92-6.6,1.92s-4.65-.7-6.98-2.1c-.04-.03-.07-.07-.11-.1-2.46,2.85-5.41,5.18-8.5,6.76,2.49,7.09,7.18,12.47,15.22,12.58,7.42.1,12.45-5.13,15.42-12.13-.53-.28-1.04-.6-1.56-.93Z"/>
      </g>
      <circle class="cls-6" cx="299.37" cy="349.76" r="16.22"/>
      <path class="cls-5" d="M298.25,374.56c-2.77,15.16-20.34,26.92-30.75,19.42-9.74-7.02-5.18-20.23,3.5-27.47,12.91-10.76,25.23-5.96,26.86-4.55,1.76,1.52,1.48,6.6.38,12.6Z"/>
      <path class="cls-5" d="M299.8,374.58c2.34,15.23,19.58,27.47,30.19,20.27,9.93-6.74,5.75-20.08-2.73-27.56-12.61-11.12-25.06-6.66-26.72-5.29-1.8,1.47-1.66,6.55-.73,12.58Z"/>
      <path class="cls-7" d="M307.39,334.65c1.47-8.04,5.61-10.22,8.56-10.18"/>
      <path class="cls-7" d="M291.42,334.45c-1.25-8.08-5.32-10.37-8.27-10.41"/>
    </g>
    <g class="cls-2">
      <path class="cls-6" d="M158.14,164.27c.64,1.34,2.53,1.35,3.19.02l3.11-6.28-9.34-.13,3.04,6.39Z"/>
      <g>
        <path class="cls-4" d="M154.3,138.04c3.86,2.28,7.57,2.34,11.33.16-2.38-3.35-4.1-7.23-4.73-11.34-.51-3.3-.77-6.31-.62-8.6,0,0-.02,0-.03,0-.01,0-.03,0-.04,0,.09,2.3-.26,5.3-.86,8.58-.75,4.09-2.58,7.92-5.04,11.2Z"/>
        <path class="cls-4" d="M173.63,145.88c-.07.28-.24.54-.52.68-4.58,2.24-8.92,3.35-12.99,3.35-4.31,0-8.33-1.25-12.02-3.76-.46-.31-.58-.94-.27-1.4s.94-.58,1.4-.27c6.58,4.48,14.06,4.58,22.85.33-1.9-1.41-3.68-3.1-5.24-5.02-.04.03-.06.07-.1.09-2.18,1.28-4.38,1.92-6.6,1.92s-4.65-.7-6.98-2.1c-.04-.03-.07-.07-.11-.1-2.46,2.85-5.41,5.18-8.5,6.76,2.49,7.09,7.18,12.47,15.22,12.58,7.42.1,12.45-5.13,15.42-12.13-.53-.28-1.04-.6-1.56-.93Z"/>
      </g>
      <circle class="cls-6" cx="160.48" cy="102.03" r="16.22"/>
      <path class="cls-5" d="M159.35,126.84c-2.77,15.16-20.34,26.92-30.75,19.42-9.74-7.02-5.18-20.23,3.5-27.47,12.91-10.76,25.23-5.96,26.86-4.55,1.76,1.52,1.48,6.6.38,12.6Z"/>
      <path class="cls-5" d="M160.9,126.86c2.34,15.23,19.58,27.47,30.19,20.27,9.93-6.74,5.75-20.08-2.73-27.56-12.61-11.12-25.06-6.66-26.72-5.29-1.8,1.47-1.66,6.55-.73,12.58Z"/>
      <path class="cls-7" d="M168.5,86.92c1.47-8.04,5.61-10.22,8.56-10.18"/>
      <path class="cls-7" d="M152.52,86.72c-1.25-8.08-5.32-10.37-8.27-10.41"/>
    </g>
    <g class="cls-2">
      <path class="cls-6" d="M86.97,765.86c.64,1.34,2.53,1.35,3.19.02l3.11-6.28-9.34-.13,3.04,6.39Z"/>
      <g>
        <path class="cls-4" d="M83.14,739.62c3.86,2.28,7.57,2.34,11.33.16-2.38-3.35-4.1-7.23-4.73-11.34-.51-3.3-.77-6.31-.62-8.6,0,0-.02,0-.03,0-.01,0-.03,0-.04,0,.09,2.3-.26,5.3-.86,8.58-.75,4.09-2.58,7.92-5.04,11.2Z"/>
        <path class="cls-4" d="M102.46,747.47c-.07.28-.24.54-.52.68-4.58,2.24-8.92,3.35-12.99,3.35-4.31,0-8.33-1.25-12.02-3.76-.46-.31-.58-.94-.27-1.4s.94-.58,1.4-.27c6.58,4.48,14.06,4.58,22.85.33-1.9-1.41-3.68-3.1-5.24-5.02-.04.03-.06.07-.1.09-2.18,1.28-4.38,1.92-6.6,1.92s-4.65-.7-6.98-2.1c-.04-.03-.07-.07-.11-.1-2.46,2.85-5.41,5.18-8.5,6.76,2.49,7.09,7.18,12.47,15.22,12.58,7.42.1,12.45-5.13,15.42-12.13-.53-.28-1.04-.6-1.56-.93Z"/>
      </g>
      <circle class="cls-6" cx="89.31" cy="703.62" r="16.22"/>
      <path class="cls-5" d="M88.18,728.42c-2.77,15.16-20.34,26.92-30.75,19.42-9.74-7.02-5.18-20.23,3.5-27.47,12.91-10.76,25.23-5.96,26.86-4.55,1.76,1.52,1.48,6.6.38,12.6Z"/>
      <path class="cls-5" d="M89.73,728.44c2.34,15.23,19.58,27.47,30.19,20.27,9.93-6.74,5.75-20.08-2.73-27.56-12.61-11.12-25.06-6.66-26.72-5.29-1.8,1.47-1.66,6.55-.73,12.58Z"/>
      <path class="cls-7" d="M97.33,688.51c1.47-8.04,5.61-10.22,8.56-10.18"/>
      <path class="cls-7" d="M81.35,688.31c-1.25-8.08-5.32-10.37-8.27-10.41"/>
    </g>
    <g class="cls-2">
      <path class="cls-6" d="M296.81,884.99c.64,1.34,2.53,1.35,3.19.02l3.11-6.28-9.34-.13,3.04,6.39Z"/>
      <g>
        <path class="cls-4" d="M292.98,858.76c3.86,2.28,7.57,2.34,11.33.16-2.38-3.35-4.1-7.23-4.73-11.34-.51-3.3-.77-6.31-.62-8.6,0,0-.02,0-.03,0-.01,0-.03,0-.04,0,.09,2.3-.26,5.3-.86,8.58-.75,4.09-2.58,7.92-5.04,11.2Z"/>
        <path class="cls-4" d="M312.3,866.6c-.07.28-.24.54-.52.68-4.58,2.24-8.92,3.35-12.99,3.35-4.31,0-8.33-1.25-12.02-3.76-.46-.31-.58-.94-.27-1.4s.94-.58,1.4-.27c6.58,4.48,14.06,4.58,22.85.33-1.9-1.41-3.68-3.1-5.24-5.02-.04.03-.06.07-.1.09-2.18,1.28-4.38,1.92-6.6,1.92s-4.65-.7-6.98-2.1c-.04-.03-.07-.07-.11-.1-2.46,2.85-5.41,5.18-8.5,6.76,2.49,7.09,7.18,12.47,15.22,12.58,7.42.1,12.45-5.13,15.42-12.13-.53-.28-1.04-.6-1.56-.93Z"/>
      </g>
      <circle class="cls-6" cx="299.15" cy="822.75" r="16.22"/>
      <path class="cls-5" d="M298.02,847.55c-2.77,15.16-20.34,26.92-30.75,19.42-9.74-7.02-5.18-20.23,3.5-27.47,12.91-10.76,25.23-5.96,26.86-4.55,1.76,1.52,1.48,6.6.38,12.6Z"/>
      <path class="cls-5" d="M299.57,847.58c2.34,15.23,19.58,27.47,30.19,20.27,9.93-6.74,5.75-20.08-2.73-27.56-12.61-11.12-25.06-6.66-26.72-5.29-1.8,1.47-1.66,6.55-.73,12.58Z"/>
      <path class="cls-7" d="M307.17,807.64c1.47-8.04,5.61-10.22,8.56-10.18"/>
      <path class="cls-7" d="M291.2,807.44c-1.25-8.08-5.32-10.37-8.27-10.41"/>
    </g>
  </g>
</svg>