<?xml version="1.0" encoding="UTF-8"?>
<svg xmlns="http://www.w3.org/2000/svg" xmlns:xlink="http://www.w3.org/1999/xlink" viewBox="0 0 1920 589.63">
  <defs>
    <style>
      .cls-1 {
        fill: #e19c31;
      }

      .cls-2, .cls-3 {
        fill: #37223a;
      }

      .cls-2, .cls-3, .cls-4 {
        stroke: #e19c31;
        stroke-width: 4px;
      }

      .cls-2, .cls-3, .cls-4, .cls-5, .cls-6 {
        stroke-miterlimit: 10;
      }

      .cls-2, .cls-4 {
        stroke-linecap: round;
      }

      .cls-4, .cls-7, .cls-6 {
        fill: none;
      }

      .cls-8 {
        clip-path: url(#clippath-1);
      }

      .cls-9 {
        clip-path: url(#clippath-3);
      }

      .cls-5 {
        stroke: #503823;
      }

      .cls-5, .cls-10 {
        fill: #f2e09e;
      }

      .cls-11 {
        fill: #ecb933;
      }

      .cls-6 {
        stroke: #ecb933;
      }

      .cls-12 {
        clip-path: url(#clippath-2);
      }

      .cls-13 {
        clip-path: url(#clippath);
      }

      .cls-14 {
        fill: #ba602c;
      }
    </style>
    <clipPath id="clippath">
      <polygon class="cls-7" points="1220.48 155.25 1114.85 216.24 1114.85 338.22 1220.48 399.21 1326.12 338.22 1326.12 216.24 1220.48 155.25"/>
    </clipPath>
    <clipPath id="clippath-1">
      <polygon class="cls-7" points="476.97 394.76 584.13 332.89 584.13 209.14 476.97 147.27 369.8 209.14 369.8 332.89 476.97 394.76"/>
    </clipPath>
    <clipPath id="clippath-2">
      <polygon class="cls-7" points="139.45 589.63 246.61 527.76 246.61 404.01 139.45 342.14 32.28 404.01 32.28 527.76 139.45 589.63"/>
    </clipPath>
    <clipPath id="clippath-3">
      <polygon class="cls-7" points="1554.41 345.81 1448.78 406.79 1448.78 528.77 1554.41 589.76 1660.05 528.77 1660.05 406.79 1554.41 345.81"/>
    </clipPath>
  </defs>
  <g id="Layer_4" data-name="Layer 4">
    <g class="cls-13">
      <image width="2000" height="3000" transform="translate(1074.9 76.06) scale(.15)" xlink:href="C:\Users\nina\Downloads\4642631628_89a153949f_o.jpg"/>
    </g>
    <path class="cls-14" d="M1220.48,158.71l102.64,59.26v118.51l-102.64,59.26-102.64-59.26v-118.51l102.64-59.26M1220.48,155.25l-105.64,60.99v121.98l105.64,60.99,105.64-60.99v-121.98l-105.64-60.99h0Z"/>
    <polygon class="cls-10" points="1443.33 154.41 1337.7 215.4 1337.7 337.37 1443.33 398.36 1548.97 337.37 1548.97 215.4 1443.33 154.41"/>
    <polyline class="cls-1" points="1004.23 97.27 1004.23 146.63 1109.87 207.62 1215.51 146.63 1215.51 97.27"/>
    <polygon class="cls-14" points="1776.03 -37.68 1670.39 23.31 1670.39 145.29 1776.03 206.28 1881.67 145.29 1881.67 23.31 1776.03 -37.68"/>
    <polygon class="cls-10" points="364.6 590.21 471.77 528.34 471.77 404.59 364.6 342.72 257.43 404.59 257.43 528.34 364.6 590.21"/>
    <g class="cls-8">
      <image width="1024" height="683" transform="translate(296.98 144.94) scale(.37)" xlink:href="C:\Users\nina\Downloads\4632384645_a8afa0769e_o.jpg"/>
    </g>
    <path class="cls-1" d="M476.97,150.74l104.17,60.14v120.28s-104.17,60.14-104.17,60.14l-104.17-60.14v-120.28s104.17-60.14,104.17-60.14M476.97,147.27l-107.17,61.87v123.75s107.17,61.87,107.17,61.87l107.17-61.87v-123.75s-107.17-61.87-107.17-61.87h0Z"/>
    <polygon class="cls-11" points="250.89 395.62 358.05 333.74 358.05 210 250.89 148.13 143.72 210 143.72 333.74 250.89 395.62"/>
    <g class="cls-12">
      <image width="600" height="450" transform="translate(-44.57 327.07) scale(.64)" xlink:href="C:\Users\nina\Downloads\272777927_6f5df1b3cb_o.jpg"/>
    </g>
    <path class="cls-1" d="M139.45,345.6l104.17,60.14v120.28s-104.17,60.14-104.17,60.14l-104.17-60.14v-120.28s104.17-60.14,104.17-60.14M139.45,342.14l-107.17,61.87v123.75s107.17,61.87,107.17,61.87l107.17-61.87v-123.75s-107.17-61.87-107.17-61.87h0Z"/>
    <polygon class="cls-10" points="1999.27 -37.85 1893.63 23.14 1893.63 145.12 1999.27 206.11 2104.9 145.12 2104.9 23.14 1999.27 -37.85"/>
    <polygon class="cls-1" points="1332.57 345.39 1226.93 406.38 1226.93 528.36 1332.57 589.35 1438.21 528.36 1438.21 406.38 1332.57 345.39"/>
    <g class="cls-9">
      <image width="1024" height="1024" transform="translate(1409.13 328.33) scale(.26)" xlink:href="C:\Users\nina\Downloads\7836716730_d4612e51f2_o.jpg"/>
    </g>
    <path class="cls-11" d="M1554.41,349.27l102.64,59.26v118.51s-102.64,59.26-102.64,59.26l-102.64-59.26v-118.51l102.64-59.26M1554.41,345.81l-105.64,60.99v121.98l105.64,60.99,105.64-60.99v-121.98s-105.64-60.99-105.64-60.99h0Z"/>
    <polygon class="cls-11" points="1665.27 154.98 1559.64 215.97 1559.64 337.95 1665.27 398.94 1770.91 337.95 1770.91 215.97 1665.27 154.98"/>
    <polygon class="cls-1" points="1888.12 154.14 1782.49 215.13 1782.49 337.11 1888.12 398.1 1993.76 337.11 1993.76 215.13 1888.12 154.14"/>
    <polygon class="cls-10" points="810.6 262.28 810.6 208.97 703.44 147.09 596.27 208.97 598.64 287.79 730.37 316.18 810.6 262.28"/>
    <path class="cls-11" d="M789.88,262.31c-30.48-7.54-51.84-20.28-76.44-24.56-24.6-4.27-62.8,25.78-88.91,27.84s31.98,34.97,31.98,34.97l133.37-38.26Z"/>
    <path class="cls-1" d="M650.14,277.7c72.78,24.95,97.52-18.75,121.3-31.18,23.91-12.5,39.16-7.97,39.16-7.97v94.16l-160.46-55.01Z"/>
    <path class="cls-14" d="M598.78,256.3s43.14,3.36,77.11,20.52c54.48,27.53,73,31.64,93.29,31.24,28.29-.56,39.8-11.22,39.8-11.22l1.62,35.87-107.17,61.87-107.17-61.87,2.51-76.41Z"/>
    <path class="cls-11" d="M703.44,150.56l104.17,60.14v120.28s-104.17,60.14-104.17,60.14l-104.17-60.14v-120.28s104.17-60.14,104.17-60.14M703.44,147.09l-107.17,61.87v123.75s107.17,61.87,107.17,61.87l107.17-61.87v-123.75s-107.17-61.87-107.17-61.87h0Z"/>
    <rect class="cls-5" x="641.85" y="297.81" width="60.52" height="25.59" rx="2.89" ry="2.89"/>
    <rect class="cls-5" x="660.29" y="308.87" width="23.62" height="4.33" rx=".95" ry=".95"/>
    <rect class="cls-5" x="641.85" y="272.21" width="60.52" height="25.59" rx="2.89" ry="2.89"/>
    <rect class="cls-5" x="660.29" y="283.28" width="23.62" height="4.33" rx=".95" ry=".95"/>
    <rect class="cls-5" x="641.85" y="246.62" width="60.52" height="25.59" rx="2.89" ry="2.89"/>
    <rect class="cls-5" x="660.29" y="257.68" width="23.62" height="4.33" rx=".95" ry=".95"/>
    <rect class="cls-5" x="637.35" y="240.36" width="69.65" height="7.67" rx="1.83" ry="1.83"/>
    <rect class="cls-5" x="737.13" y="268.85" width="35.86" height="15.16" rx="1.71" ry="1.71"/>
    <rect class="cls-5" x="748.06" y="275.41" width="14" height="2.56" rx=".56" ry=".56"/>
    <rect class="cls-5" x="737.13" y="253.69" width="35.86" height="15.16" rx="1.71" ry="1.71"/>
    <rect class="cls-5" x="748.06" y="260.24" width="14" height="2.56" rx=".56" ry=".56"/>
    <rect class="cls-5" x="737.13" y="238.52" width="35.86" height="15.16" rx="1.71" ry="1.71"/>
    <rect class="cls-5" x="748.06" y="245.08" width="14" height="2.56" rx=".56" ry=".56"/>
    <rect class="cls-5" x="734.47" y="234.82" width="41.27" height="4.55" rx="1.08" ry="1.08"/>
    <line class="cls-6" x1="196.05" y1="97.27" x2="1747.01" y2="97.27"/>
  </g>
  <g id="Layer_8" data-name="Layer 8">
    <g>
      <path class="cls-2" d="M958.78,360.87c1.26,2.66,5.04,2.68,6.34.05l6.18-12.48-18.56-.26,6.04,12.69Z"/>
      <path class="cls-4" d="M964.27,284.54c-1.01-6.55-1.54-12.53-1.24-17.1-.02,0-.04,0-.06,0-.03,0-.05,0-.08,0,.18,4.57-.52,10.53-1.71,17.06-3.09,16.93-15.48,31.74-29.42,38.8,4.95,14.09,14.26,24.77,30.26,24.99,14.75.21,24.74-10.19,30.64-24.11-13.76-7.44-25.77-22.6-28.39-39.64Z"/>
      <path class="cls-4" d="M949.92,308.36c8.33,5.01,16.64,5.23,24.93.35"/>
      <path class="cls-4" d="M939.95,321.23c13.67,9.3,29.57,9.52,47.69.66"/>
      <circle class="cls-2" cx="963.42" cy="235.21" r="32.24"/>
      <path class="cls-3" d="M961.18,284.5c-5.5,30.12-40.41,53.49-61.1,38.59-19.36-13.94-10.3-40.21,6.96-54.59,25.66-21.39,50.14-11.84,53.38-9.04,3.49,3.02,2.94,13.11.76,25.04Z"/>
      <path class="cls-3" d="M964.27,284.54c4.66,30.26,38.91,54.6,60,40.28,19.74-13.4,11.42-39.9-5.43-54.76-25.06-22.09-49.79-13.23-53.11-10.52-3.57,2.92-3.3,13.02-1.46,25.01Z"/>
      <path class="cls-4" d="M979.36,205.18c2.92-15.98,11.15-20.3,17.01-20.22"/>
      <path class="cls-4" d="M947.62,204.78c-2.47-16.05-10.58-20.61-16.44-20.69"/>
    </g>
  </g>
</svg>